<svg width="62" height="16" viewBox="0 0 62 16" fill="none" xmlns="http://www.w3.org/2000/svg">
<path d="M7.73638 0.320312L9.46454 5.63903H15.057L10.5326 8.92618L12.2608 14.2449L7.73638 10.9577L3.21201 14.2449L4.94017 8.92618L0.415796 5.63903H6.00822L7.73638 0.320312Z" fill="#FF9D0B"/>
<path d="M23.1299 0.320312L24.8581 5.63903H30.4505L25.9261 8.92618L27.6543 14.2449L23.1299 10.9577L18.6056 14.2449L20.3337 8.92618L15.8094 5.63903H21.4018L23.1299 0.320312Z" fill="#FF9D0B"/>
<path d="M38.5232 0.320312L40.2514 5.63903H45.8438L41.3195 8.92618L43.0476 14.2449L38.5232 10.9577L33.9989 14.2449L35.727 8.92618L31.2027 5.63903H36.7951L38.5232 0.320312Z" fill="#FF9D0B"/>
<path d="M53.9246 0.320312L55.6528 5.63903H61.2452L56.7208 8.92618L58.449 14.2449L53.9246 10.9577L49.4002 14.2449L51.1284 8.92618L46.604 5.63903H52.1965L53.9246 0.320312Z" fill="#FF9D0B"/>
</svg>
