<svg width="124" height="30" viewBox="0 0 124 30" fill="none" xmlns="http://www.w3.org/2000/svg">
<g clip-path="url(#clip0_174_353)">
<path d="M26.52 9.75C26.88 9.75 27 9.88 27 10.23V18.15H31.07C31.42 18.15 31.55 18.28 31.55 18.63V19.33C31.55 19.68 31.42 19.81 31.07 19.81H25.71C25.36 19.81 25.22 19.68 25.22 19.33V10.23C25.22 9.88 25.36 9.75 25.71 9.75H26.52Z" fill="white"/>
<path d="M35.1 13.24C35.1 10.93 36.56 9.54 39.1 9.54C41.64 9.54 43.1 10.93 43.1 13.24V16.32C43.1 18.63 41.63 20.02 39.1 20.02C36.57 20.02 35.1 18.63 35.1 16.32V13.24ZM41.42 13.24C41.42 11.94 40.61 11.24 39.15 11.24C37.69 11.24 36.89 11.95 36.89 13.24V16.34C36.89 17.65 37.69 18.34 39.15 18.34C40.61 18.34 41.42 17.62 41.42 16.34V13.24Z" fill="white"/>
<path d="M55.01 14.3C55.4 14.3 55.49 14.43 55.49 14.78V16.68C55.5006 17.1275 55.4109 17.5718 55.2275 17.9801C55.044 18.3885 54.7716 18.7506 54.43 19.04C53.5817 19.7155 52.5121 20.0506 51.43 19.98C48.84 19.98 47.43 18.59 47.43 16.28V13.18C47.43 10.9 48.89 9.5 51.43 9.5C53.43 9.5 54.73 10.29 55.28 11.87C55.3108 11.9294 55.3273 11.9951 55.3282 12.0619C55.3291 12.1288 55.3144 12.195 55.2853 12.2551C55.2562 12.3153 55.2134 12.3679 55.1604 12.4087C55.1074 12.4494 55.0456 12.4773 54.98 12.49L54.2 12.76C53.86 12.88 53.72 12.81 53.6 12.46C53.4343 12.0329 53.131 11.6731 52.738 11.4377C52.345 11.2023 51.8848 11.1045 51.43 11.16C49.96 11.16 49.16 11.87 49.16 13.16V16.34C49.16 17.65 49.97 18.34 51.43 18.34C52.89 18.34 53.79 17.67 53.79 16.69V15.95H51.62C51.26 15.95 51.13 15.81 51.13 15.46V14.78C51.13 14.43 51.26 14.3 51.62 14.3H55.01Z" fill="white"/>
<path d="M59.62 13.24C59.62 10.93 61.08 9.54 63.62 9.54C66.16 9.54 67.62 10.93 67.62 13.24V16.32C67.62 18.63 66.15 20.02 63.62 20.02C61.09 20.02 59.62 18.63 59.62 16.32V13.24ZM65.93 13.24C65.93 11.94 65.12 11.24 63.67 11.24C62.22 11.24 61.4 11.95 61.4 13.24V16.34C61.4 17.65 62.21 18.34 63.67 18.34C65.13 18.34 65.93 17.62 65.93 16.34V13.24Z" fill="white"/>
<path d="M72.33 10.04C72.33 9.82 72.4 9.75 72.62 9.75H73.08C73.3 9.75 73.35 9.82 73.35 10.04V19.52C73.35 19.74 73.35 19.81 73.08 19.81H72.62C72.4 19.81 72.33 19.74 72.33 19.52V10.04Z" fill="white"/>
<path d="M82.46 9.75C83.2928 9.75 84.0914 10.0808 84.6803 10.6697C85.2692 11.2585 85.6 12.0572 85.6 12.89C85.6 13.7228 85.2692 14.5215 84.6803 15.1103C84.0914 15.6992 83.2928 16.03 82.46 16.03H79.46V19.52C79.46 19.74 79.41 19.81 79.2 19.81H78.73C78.52 19.81 78.44 19.74 78.44 19.52V10.04C78.44 9.82 78.52 9.75 78.73 9.75H82.46ZM82.37 15.04C82.6563 15.04 82.9398 14.9836 83.2043 14.8741C83.4687 14.7645 83.7091 14.6039 83.9115 14.4015C84.1139 14.1991 84.2745 13.9587 84.3841 13.6943C84.4936 13.4298 84.55 13.1463 84.55 12.86C84.55 12.5737 84.4936 12.2902 84.3841 12.0257C84.2745 11.7613 84.1139 11.5209 83.9115 11.3185C83.7091 11.1161 83.4687 10.9555 83.2043 10.8459C82.9398 10.7364 82.6563 10.68 82.37 10.68H79.37V15.04H82.37Z" fill="white"/>
<path d="M93.41 9.55C94.1821 9.4648 94.961 9.6309 95.6312 10.0236C96.301 10.4164 96.827 11.0148 97.13 11.73C97.21 11.89 97.13 12.02 96.97 12.1L96.53 12.3C96.35 12.37 96.28 12.36 96.17 12.17C95.9434 11.6392 95.5539 11.1942 95.0577 10.8994C94.5616 10.6046 93.9845 10.4752 93.41 10.53C91.72 10.53 90.8 11.2 90.8 12.4C90.7902 12.7667 90.9133 13.1247 91.1468 13.4077C91.3802 13.6907 91.7081 13.8798 92.07 13.94C92.6078 14.1154 93.1655 14.2229 93.73 14.26C94.4133 14.2964 95.0874 14.4346 95.73 14.67C96.223 14.8259 96.647 15.1465 96.931 15.5781C97.215 16.0097 97.342 16.5259 97.29 17.04C97.29 18.91 95.93 20.04 93.43 20.04C92.61 20.1338 91.7826 19.9438 91.0857 19.5016C90.3888 19.0595 89.8644 18.3918 89.6 17.61C89.5823 17.5744 89.5728 17.5353 89.572 17.4955C89.5712 17.4557 89.5793 17.4163 89.5955 17.38C89.6117 17.3437 89.6358 17.3114 89.666 17.2855C89.6961 17.2595 89.7316 17.2406 89.77 17.23L90.21 17.07C90.2446 17.0558 90.2819 17.049 90.3193 17.05C90.3567 17.051 90.3935 17.0598 90.4274 17.0758C90.4612 17.0918 90.4914 17.1146 90.5159 17.1429C90.5405 17.1712 90.5589 17.2042 90.57 17.24C90.7937 17.8049 91.1915 18.2839 91.7057 18.6076C92.2199 18.9312 92.8239 19.0827 93.43 19.04C95.32 19.04 96.25 18.38 96.25 17.04C96.268 16.6878 96.16 16.3407 95.9454 16.0605C95.7312 15.7804 95.4245 15.5853 95.08 15.51C94.5626 15.3557 94.029 15.2617 93.49 15.23L92.41 15.09C92.072 15.0183 91.7382 14.9281 91.41 14.82C91.0858 14.7221 90.7836 14.5625 90.52 14.35C90.2547 14.1098 90.0456 13.8142 89.9073 13.4841C89.7691 13.154 89.7051 12.7976 89.72 12.44C89.79 10.69 91.1 9.55 93.41 9.55Z" fill="white"/>
<path d="M102.68 16.39C102.722 17.0972 103.033 17.7615 103.549 18.2472C104.065 18.7329 104.747 19.0033 105.455 19.0033C106.163 19.0033 106.845 18.7329 107.361 18.2472C107.877 17.7615 108.187 17.0972 108.23 16.39V10.04C108.23 9.82 108.3 9.75 108.52 9.75H108.98C109.2 9.75 109.27 9.82 109.27 10.04V16.38C109.27 18.65 107.93 20.02 105.46 20.02C102.99 20.02 101.65 18.65 101.65 16.38V10.04C101.65 9.82 101.72 9.75 101.93 9.75H102.4C102.61 9.75 102.68 9.82 102.68 10.04V16.39Z" fill="white"/>
<path d="M123.07 9.75C123.29 9.75 123.36 9.82 123.36 10.04V19.52C123.36 19.74 123.29 19.81 123.07 19.81H122.65C122.44 19.81 122.37 19.74 122.37 19.52V13.75C122.37 12.9105 122.427 12.0719 122.54 11.24H122.48C122.168 12.0007 121.803 12.7391 121.39 13.45L119.24 17.24C119.214 17.3058 119.168 17.362 119.109 17.4013C119.05 17.4405 118.981 17.461 118.91 17.46H118.63C118.558 17.4604 118.488 17.4397 118.427 17.4007C118.367 17.3616 118.319 17.3058 118.29 17.24L116.11 13.41C115.723 12.7093 115.389 11.9806 115.11 11.23H115.05C115.152 12.0695 115.206 12.9143 115.21 13.76V19.52C115.21 19.74 115.14 19.81 114.92 19.81H114.53C114.31 19.81 114.24 19.74 114.24 19.52V10.04C114.24 9.82 114.31 9.75 114.53 9.75H114.89C114.972 9.7424 115.055 9.7603 115.126 9.8015C115.198 9.8427 115.255 9.9051 115.29 9.98L118.79 16.2L122.27 10.04C122.38 9.83 122.44 9.8 122.66 9.8L123.07 9.75Z" fill="white"/>
<path d="M8.73 18.29V25.52C8.73 25.7972 8.6199 26.063 8.4239 26.2589C8.228 26.4549 7.9622 26.565 7.685 26.565C7.4079 26.565 7.1421 26.4549 6.9461 26.2589C6.7501 26.063 6.64 25.7972 6.64 25.52V18.3C6.931 18.5125 7.2798 18.6311 7.64 18.64C8.0326 18.6512 8.4173 18.5277 8.73 18.29ZM17.63 16.2C17.3648 16.2 17.1104 16.3054 16.9229 16.4929C16.7354 16.6804 16.63 16.9348 16.63 17.2V18.46C16.63 18.7372 16.7401 19.003 16.9361 19.1989C17.132 19.3949 17.3978 19.505 17.675 19.505C17.9522 19.505 18.218 19.3949 18.4139 19.1989C18.6099 19.003 18.72 18.7372 18.72 18.46V17.25C18.7278 17.1066 18.7046 16.9632 18.652 16.8296C18.5994 16.696 18.5187 16.5752 18.4152 16.4756C18.3118 16.376 18.1881 16.2998 18.0527 16.2522C17.9172 16.2047 17.773 16.1869 17.63 16.2ZM4.37 21.03C4.01017 21.0192 3.66183 20.9008 3.37 20.69V27.94C3.37 28.2185 3.48062 28.4856 3.67754 28.6825C3.87445 28.8794 4.14152 28.99 4.42 28.99C4.69848 28.99 4.96555 28.8794 5.16246 28.6825C5.35938 28.4856 5.47 28.2185 5.47 27.94V20.74C5.14345 20.9511 4.75816 21.0527 4.37 21.03ZM14.37 14.03C14.2345 14.0232 14.0991 14.0441 13.9719 14.0913C13.8448 14.1385 13.7286 14.2111 13.6303 14.3046C13.5321 14.3982 13.454 14.5107 13.4006 14.6354C13.3473 14.7601 13.3198 14.8944 13.32 15.03V20.6C13.32 20.8785 13.4306 21.1456 13.6275 21.3425C13.8245 21.5394 14.0915 21.65 14.37 21.65C14.6485 21.65 14.9156 21.5394 15.1125 21.3425C15.3094 21.1456 15.42 20.8785 15.42 20.6V15.1C15.428 14.9557 15.4046 14.8114 15.3514 14.677C15.2982 14.5426 15.2166 14.4213 15.112 14.3215C15.0074 14.2217 14.8825 14.1457 14.7458 14.0989C14.6091 14.052 14.4638 14.0353 14.32 14.05L14.37 14.03ZM11.05 16.17C10.6733 16.1674 10.3067 16.0487 10 15.83V23.1C10 23.3785 10.1106 23.6456 10.3075 23.8425C10.5045 24.0394 10.7715 24.15 11.05 24.15C11.3285 24.15 11.5955 24.0394 11.7925 23.8425C11.9894 23.6456 12.1 23.3785 12.1 23.1V15.84C11.7828 16.0763 11.3955 16.1995 11 16.19L11.05 16.17ZM2.1 21.74V1.43C2.09737 1.18243 1.99717 0.94591 1.82117 0.77178C1.64517 0.59765 1.40758 0.49999 1.16 0.5H0.94C0.69242 0.49999 0.45483 0.59765 0.27883 0.77178C0.10283 0.94591 0.00263 1.18243 0 1.43V21.74C0 21.9893 0.09904 22.2284 0.27532 22.4047C0.4516 22.581 0.6907 22.68 0.94 22.68H1.16C1.40931 22.68 1.6484 22.581 1.82468 22.4047C2.00097 22.2284 2.1 21.9893 2.1 21.74ZM4.48 20.26H4.26C4.0107 20.26 3.7716 20.161 3.59532 19.9847C3.41904 19.8084 3.32 19.5693 3.32 19.32V3.85C3.32264 3.60244 3.42283 3.3659 3.59883 3.19178C3.77483 3.01765 4.01242 2.91999 4.26 2.92H4.48C4.72758 2.91999 4.96517 3.01765 5.14117 3.19178C5.31717 3.3659 5.41737 3.60244 5.42 3.85V19.34C5.42 19.5893 5.32096 19.8284 5.14468 20.0047C4.9684 20.181 4.7293 20.28 4.48 20.28V20.26ZM7.79 17.88H7.56C7.3134 17.88 7.0768 17.782 6.9024 17.6076C6.728 17.4332 6.63 17.1967 6.63 16.95V6.25C6.6287 6.12703 6.6518 6.00502 6.6979 5.89103C6.744 5.77704 6.8123 5.67334 6.8988 5.58592C6.9853 5.4985 7.0883 5.4291 7.2018 5.38174C7.3153 5.33438 7.437 5.30999 7.56 5.31H7.79C8.0376 5.31264 8.2741 5.41283 8.4482 5.58883C8.6224 5.76483 8.72 6.00242 8.72 6.25V16.95C8.72 17.1967 8.622 17.4332 8.4476 17.6076C8.2732 17.782 8.0367 17.88 7.79 17.88ZM10.89 15.43C10.6424 15.43 10.4048 15.3324 10.2288 15.1582C10.0528 14.9841 9.9526 14.7476 9.95 14.5V8.74C9.9418 8.6116 9.96 8.4829 10.0036 8.3618C10.0471 8.2408 10.1151 8.1299 10.2032 8.0362C10.2913 7.9424 10.3977 7.8678 10.5159 7.8168C10.634 7.7659 10.7613 7.7397 10.89 7.74H11.11C11.3593 7.74 11.5984 7.839 11.7747 8.0153C11.951 8.1916 12.05 8.4307 12.05 8.68V14.48C12.0513 14.6043 12.028 14.7276 11.9813 14.8428C11.9347 14.958 11.8657 15.0628 11.7782 15.1512C11.6908 15.2395 11.5868 15.3096 11.472 15.3575C11.3573 15.4054 11.2343 15.43 11.11 15.43H10.89ZM14.2 13.28C13.9507 13.28 13.7116 13.181 13.5353 13.0047C13.359 12.8284 13.26 12.5893 13.26 12.34V10.85C13.2626 10.6024 13.3628 10.3659 13.5388 10.1918C13.7148 10.0176 13.9524 9.92 14.2 9.92H14.42C14.6676 9.92 14.9052 10.0176 15.0812 10.1918C15.2572 10.3659 15.3574 10.6024 15.36 10.85V12.34C15.36 12.5876 15.2624 12.8252 15.0882 13.0012C14.9141 13.1772 14.6776 13.2774 14.43 13.28H14.2Z" fill="white"/>
</g>
<defs>
<clipPath id="clip0_174_353">
<rect width="124" height="29" fill="white" transform="translate(0 0.5)"/>
</clipPath>
</defs>
</svg>
